# xmcd
#
# Track frame offsets:
#	150
#	15279
#	33187
#	34871
#	49781
#	70257
#	84395
#	100604
#	120287
#	136478
#	152323
#	170536
#	188467
#	208212
#	224901
#	227245
#	244110
#	257815
#
# Disc length: 3614 seconds
#
# Revision: 2
# Processed by: cddbd v1.5.2PL0 Copyright (c) Steve Scherf et al.
# Submitted via: audiograbber 1.83.01
#
DISCID=eb0e1c12
DTITLE=Various Artist - Promo Only Country 2005 - 02
DYEAR=2005
DGENRE=Country
TTITLE0=Blake Shelton - Goodbye Time
TTITLE1=Shania Twain - Don't!
TTITLE2=Jimmy Buffett - Piece Of Work
TTITLE3=Jo Dee Messina - My Give A Damn's Busted
TTITLE4=Lonestar - Class Reunion
TTITLE5=Julie Roberts - Wake Up Older
TTITLE6=SheDaisy - Don't Worry 'Bout A Thing
TTITLE7=Jedd Hughes - Soldier For The Lonely
TTITLE8=Lila McCann - Go Easy On Me
TTITLE9=Jeff Carson ft. Lisa Brokop - God Save The World
TTITLE10=Rebecca Lynn Howard - That's Why I Hate Pontiacs
TTITLE11=Jay Teter - Until You Find Your Mr. Right
TTITLE12=Jessi Alexander - Canyon Prayer
TTITLE13=Tift Merritt - Good Hearted Man
TTITLE14=Wayne Warner - Something 'Bout You
TTITLE15=Katrina Elam - I Want A Cowboy
TTITLE16=The Be Good Tanyas - Opal's Blues
TTITLE17=Kelly Michelle - Clean Up Good
EXTD=
EXTT0=
EXTT1=
EXTT2=
EXTT3=
EXTT4=
EXTT5=
EXTT6=
EXTT7=
EXTT8=
EXTT9=
EXTT10=
EXTT11=
EXTT12=
EXTT13=
EXTT14=
EXTT15=
EXTT16=
EXTT17=
PLAYORDER=
